<svg xmlns="http://www.w3.org/2000/svg" viewBox="0 0 28.54 28.23"><defs><style>.a{fill:#9ba1a8;}.b{fill:#fff;}.c{fill:#62b12f;}</style></defs><title>iDescargarSolucion</title><path class="a" d="M27.54,0H3.46a1,1,0,0,0-1,1V5.61H1a1,1,0,0,0,0,2H2.46v3H1a1,1,0,0,0,0,2H2.46v3H1a1,1,0,0,0,0,2H2.46v3H1a1,1,0,0,0,0,2H2.46v4.61a1,1,0,0,0,1,1H27.54a1,1,0,0,0,1-1V1A1,1,0,0,0,27.54,0Z"/><path class="b" d="M26.54,26.23H4.46V22.62H6.37a1,1,0,0,0,0-2H4.46v-3H6.37a1,1,0,0,0,0-2H4.46v-3H6.37a1,1,0,1,0,0-2H4.46v-3H6.37a1,1,0,0,0,0-2H4.46V2H26.54Z"/><path class="c" d="M21.72,11.63H19.53V6.79H12.83v4.84H10.64c-1.18,0-1.6.8-.93,1.77L15,21a1.39,1.39,0,0,0,2.44,0l5.25-7.62C23.32,12.43,22.91,11.63,21.72,11.63Z"/></svg>