<svg xmlns="http://www.w3.org/2000/svg" viewBox="0 0 109.76 106.08"><defs><style>.a{fill:#1d1d1b;}</style></defs><title>iTutorIndice</title><path class="a" d="M102.94,77.3l6.8-34a1,1,0,1,0-2-.39l-6.71,33.56a5,5,0,0,0-1.06-.12H88.76c-5.69,0-8.06-3.21-8.43-3.78a2.77,2.77,0,0,0-.3-.45L69.32,57.66A29.29,29.29,0,0,0,46.76,44.83H25C16.9,44.83,10.54,47.24,6.1,52-.09,58.59,0,67.41,0,68.94v32.14a5,5,0,1,0,10,0V68.83c0-.08,0-.21,0-.29s-.25-5.89,3.45-9.78c2.48-2.6,6.37-3.93,11.56-3.93H46.76a19.49,19.49,0,0,1,14.4,8.61l.08.12,10.6,14.3c2,3.28,7.67,8.47,16.91,8.47H100a5,5,0,0,0,2.93-9Z"/><path class="a" d="M35.18,42.5A21.25,21.25,0,1,0,13.93,21.25,21.27,21.27,0,0,0,35.18,42.5Zm0-32.5A11.25,11.25,0,1,1,23.93,21.25,11.26,11.26,0,0,1,35.18,10Z"/></svg>